# xmcd
#
# Track frame offsets: 
#        150
#        12595
#        25622
#        39064
#        50845
#        65133
#        80333
#        92620
#        104605
#        117695
#        133735
#        146407
#        160054
#        174803
#        188684
#        202688
#        215954
#        232457
#
# Disc length: 3280 seconds
#
# Revision: 1
# Processed by: cddbd v1.5.2PL0 Copyright (c) Steve Scherf et al.
# Submitted via: ExactAudioCopy v0.95b2
#
DISCID=000cce12
DTITLE=Blind Blake - The Essential Disc 2
DYEAR=2002
DGENRE=Blues
TTITLE0=You Gonna Quit Me Blues
TTITLE1=Southbound Rag
TTITLE2=Diddie Wa Diddie
TTITLE3=Lead Hearted Blues
TTITLE4=Detroit Bound Blues
TTITLE5=Third Degree Blues
TTITLE6=Poker Woman Blues
TTITLE7=Doing A Stretch
TTITLE8=Wabash Rag
TTITLE9=Depression's Gone From Me Blues
TTITLE10=Rope Stretchin' Blues - Part 1
TTITLE11=Rope Stretchin' Blues - Part 2
TTITLE12=Elzadie's Policy Blues
TTITLE13=That Will Never Happen No More
TTITLE14=Blake's Worried Blues
TTITLE15=Too Tight Blues No. 2
TTITLE16=Lonesome Christmas Blues
TTITLE17=Skeedle Lou Doo
EXTD=
EXTT0=
EXTT1=
EXTT2=
EXTT3=
EXTT4=
EXTT5=
EXTT6=
EXTT7=
EXTT8=
EXTT9=
EXTT10=
EXTT11=
EXTT12=
EXTT13=
EXTT14=
EXTT15=
EXTT16=
EXTT17=
PLAYORDER=
